<?xml version="1.0" encoding="utf-8"?>
<!-- Generator: Adobe Illustrator 21.0.0, SVG Export Plug-In . SVG Version: 6.00 Build 0)  -->
<svg version="1.1" id="Layer_1" xmlns="http://www.w3.org/2000/svg" xmlns:xlink="http://www.w3.org/1999/xlink" x="0px" y="0px"
	 viewBox="0 0 1920 1080" style="enable-background:new 0 0 1920 1080;" xml:space="preserve">
<style type="text/css">
	.st0{fill:#122133;}
	.st1{fill:#07111E;}
	.st2{fill:#1D3349;}
	.st3{fill:#2E4B63;}
</style>
<path class="st0" d="M914.5,245.9c8.4,8.4,8.4,22,0,30.4l-746,746c-4.2,4.2-9.7,6.3-15.2,6.3s-11-2.1-15.2-6.3
	c-8.4-8.4-8.4-22,0-30.4l254.6-254.6c4.2-4.2,6.3-9.7,6.3-15.2s-2.1-11-6.3-15.2c-8.4-8.4-22-8.4-30.4,0L296.1,773l-75.3,75.3
	c-1.2,1.2-2.5,2.2-3.9,3.1c-3.5,2.1-7.4,3.2-11.3,3.2c-5.5,0-11-2.1-15.2-6.3c-8.4-8.4-8.4-22,0-30.4l332.2-332.1L1008.3,0h60.8
	L728.8,340.3L624.5,444.6c-4.2,4.2-6.3,9.7-6.3,15.2s2.1,11,6.3,15.2c8.4,8.4,22,8.4,30.4,0L884,245.9c4.2-4.2,9.7-6.3,15.2-6.3
	C904.8,239.6,910.3,241.7,914.5,245.9z"/>
<path class="st0" d="M1313.8,194.7L590.6,917.9c-16.2,16.2-42.4,16.2-58.6,0c-8.1-8.1-12.1-18.7-12.1-29.3s4-21.2,12.1-29.3
	L1391.3,0h117.3L1313.8,194.7z"/>
<path class="st0" d="M1743,0l-552.6,552.6c-14.6,14.6-37.5,16-53.7,4.2c-1.7-1.3-3.4-2.7-4.9-4.2c-8.1-8.1-12.1-18.7-12.1-29.3
	s4-21.2,12.1-29.3l441.7-441.7c14.2-14.2,15.9-36.2,5.2-52.3L1743,0L1743,0z"/>
<path class="st0" d="M591.3,147.7c0,11.1-4.3,22.3-12.7,30.7L0,757V634.1L517.1,117c17-17,44.5-17,61.5,0
	C587,125.5,591.3,136.6,591.3,147.7z"/>
<path class="st0" d="M1920,614.8V668l-339.1,339.1c-7.3,7.4-19.3,7.4-26.6,0c-7.4-7.4-7.4-19.3,0-26.6l63.1-63.1
	c9.9-12.4,9.1-30.4-2.4-41.9c-6.2-6.1-14.2-9.2-22.3-9.2c-7.6,0-15.1,2.7-21.1,8.1L1366,1080h-147.3l507.2-507.2
	c10.2-10.2,23.5-15.3,36.8-15.3s26.6,5.1,36.8,15.3c20.3,20.3,20.3,53.3,0,73.6l-107.2,107.2c-11.1,12.4-10.8,31.4,1.1,43.3
	c6.1,6.2,14.2,9.2,22.3,9.2c6.9,0,13.9-2.3,19.6-6.9L1920,614.8z"/>
<rect y="-218.7" class="st1" width="93" height="93"/>
<rect x="93" y="-218.7" class="st0" width="93" height="93"/>
<rect x="186" y="-218.7" class="st2" width="93" height="93"/>
<rect x="279" y="-218.7" class="st3" width="93" height="93"/>
</svg>
