<?xml version="1.0" encoding="utf-8"?>
<!-- Generator: Adobe Illustrator 21.0.0, SVG Export Plug-In . SVG Version: 6.00 Build 0)  -->
<svg version="1.1" id="Layer_1" xmlns="http://www.w3.org/2000/svg" xmlns:xlink="http://www.w3.org/1999/xlink" x="0px" y="0px"
	 viewBox="0 0 1920 1080" style="enable-background:new 0 0 1920 1080;" xml:space="preserve">
<style type="text/css">
	.st0{fill:#586E77;}
</style>
<path class="st0" d="M799.4,821.7c-4.2,4.2-6.3,9.7-6.3,15.2s2.1,11,6.3,15.2c8.4,8.4,22,8.4,30.4,0l66.1-66.1l75.3-75.3
	c4.2-4.2,9.7-6.3,15.2-6.3s11,2.1,15.2,6.3c0.2,0.2,0.4,0.4,0.6,0.6c7.8,8.4,7.6,21.6-0.6,29.8L925,817.7L662.7,1080H561.9
	c-6-3-13.2-3-19.2,0h-62.4l543.3-543.3c4.2-4.2,9.7-6.3,15.2-6.3s11,2.1,15.2,6.3c8.4,8.4,8.4,22,0,30.4L799.4,821.7z"/>
<path class="st0" d="M608.9,0L278.2,330.8c-9.4,9.4-24.6,9.4-33.9,0c-4.7-4.7-7-10.8-7-17c0-6.1,2.3-12.3,7-17L541.1,0H608.9z"/>
<polygon class="st0" points="1920,690.7 1920,781.3 1621.3,1080 1530.7,1080 "/>
<polygon class="st0" points="1920,836.7 1920,1080 1676.7,1080 "/>
</svg>
