<?xml version="1.0" encoding="utf-8"?>
<!-- Generator: Adobe Illustrator 21.0.0, SVG Export Plug-In . SVG Version: 6.00 Build 0)  -->
<svg version="1.1" id="Layer_1" xmlns="http://www.w3.org/2000/svg" xmlns:xlink="http://www.w3.org/1999/xlink" x="0px" y="0px"
	 viewBox="0 0 1920 1080" style="enable-background:new 0 0 1920 1080;" xml:space="preserve">
<style type="text/css">
	.st0{fill:#195C86;}
</style>
<path class="st0" d="M1920,0v107.5l-577.4,577.4l-13.4,13.4c-7.2,7.2-16.7,10.8-26.2,10.8s-18.9-3.6-26.2-10.8
	c-14.5-14.5-14.5-37.9,0-52.3l13.4-13.4l23.3-23.3c7.2-7.2,10.8-16.7,10.8-26.2s-3.6-18.9-10.8-26.2c-14.5-14.5-37.9-14.5-52.3,0
	l-275,275c-7.2,7.2-16.7,10.8-26.2,10.8s-18.9-3.6-26.2-10.8c-4.1-4.2-7.1-9-8.9-14.2c-4.4-12.9-1.4-27.8,8.9-38.1l222.8-222.8
	l28.9-28.9L1713.5,0H1920z"/>
<path class="st0" d="M948.5,462.1l-390,390l0.1,0.1L330.9,1080H0V897l426.1-426.1c11.8-11.8,27.3-17.7,42.8-17.7s31,5.9,42.8,17.7
	c4.5,4.5,8.1,9.5,10.9,14.8c11.9,22.8,8.3,51.6-10.9,70.7L387.3,680.8l0.1,0.1L216.9,851.4l-84.7,84.7
	c-11.8,11.8-17.7,27.3-17.7,42.8s5.9,31,17.7,42.8c23.6,23.6,61.9,23.6,85.5,0l255.1-255.1l0.1,0.1l390-390
	c11.8-11.8,27.3-17.7,42.8-17.7s31,5.9,42.8,17.7C972.2,400.2,972.2,438.5,948.5,462.1z"/>
<path class="st0" d="M1181.6,841.4c0,4.2-1.6,8.4-4.8,11.7l-227,227h-46.7l250.3-250.3c6.5-6.4,16.9-6.4,23.3,0
	C1180,832.9,1181.6,837.2,1181.6,841.4z"/>
<path class="st0" d="M1556.1,570c0,6.1-2.3,12.3-7,17L1056,1080h-67.8l527-527c9.4-9.4,24.6-9.4,33.9,0
	C1553.8,557.7,1556.1,563.8,1556.1,570z"/>
<polygon class="st0" points="267.3,0 0,267.3 0,176.7 176.7,0 "/>
</svg>
