<?xml version="1.0" encoding="utf-8"?>
<!-- Generator: Adobe Illustrator 21.0.0, SVG Export Plug-In . SVG Version: 6.00 Build 0)  -->
<svg version="1.1" id="Layer_1" xmlns="http://www.w3.org/2000/svg" xmlns:xlink="http://www.w3.org/1999/xlink" x="0px" y="0px"
	 viewBox="0 0 930.6 1262.4" style="enable-background:new 0 0 930.6 1262.4;" xml:space="preserve">
<style type="text/css">
	.st0{fill:#143441;}
	.st1{fill:#0C2533;}
	.st2{fill:#7C8D9C;}
	.st3{fill:#5A6570;}
</style>
<g id="Layer_2">
	<g id="Layer_2_1_">
		<path class="st0" d="M930.6,797.1c0,173.9-95.3,325.4-236.6,405.3c-9.7,5.5-19.6,10.6-29.7,15.4c-22.6,10.7-46.2,19.6-70.6,26.6
			c-21.7,6.2-44,10.9-66.9,13.9c-0.1,0-0.2,0-0.4,0.1c-20,2.6-40.4,4-61.1,4c-20.3,0-40.4-1.3-60-3.8c-49.2-6.3-95.9-20.3-139-40.7
			C108.9,1143.2,0,982.9,0,797.1c0-257,208.3-465.3,465.3-465.3c73.3,0,142.6,17,204.3,47.2c22.1,10.8,43.2,23.3,63.2,37.4
			C852.4,500.5,930.6,639.7,930.6,797.1z"/>
	</g>
</g>
<path class="st1" d="M587.1,273.5l-103.7,286H372.8c-20,0-36.9-14.7-39.7-34.5l-29-205.8c-3.4-24.1,15.3-45.7,39.7-45.7H587.1z"/>
<g id="Layer_1_1_">
</g>
<path class="st1" d="M523.5,970.9h21.9c20,0,36.9-14.7,39.7-34.5l39.5-276.8c6.6,3,13.9,4.6,21.6,4.6h0.1
	c24.4,0,43.2,21.6,39.7,45.8l-41,286.4c-2.8,19.8-19.7,34.5-39.7,34.5h-21.9c0,5.2,0.5,10.3,1.5,15.2
	C550,1039.3,523.5,1007.8,523.5,970.9z"/>
<path class="st1" d="M684.9,1175.9c5.8,7.4,9.2,16.6,9.2,26.2v0.3c-9.7,5.5-19.6,10.6-29.7,15.4c-22.6,10.7-46.2,19.6-70.6,26.6
	H398.9c-8.2,0-16-2.3-22.6-6.5s-12.1-10.2-15.6-17.6c-5.8-12.2-5.2-25.1-0.2-35.9h231.2c8.2,0,16-2.3,22.6-6.5s12.1-10.2,15.6-17.6
	c7.4-15.5,4.4-32.4-5-44.4c1.9-2.4,3.6-5.1,5-8c0.9-1.8,1.6-3.7,2.2-5.6c8.4,3.3,17.5,5.1,27,5.1h-7.4c24.5,0,42.4,20.1,42.4,42.3
	c0,6-1.3,12.2-4.2,18.2C688.5,1170.8,686.8,1173.5,684.9,1175.9z"/>
<path class="st1" d="M732.8,416.3L717.5,525c-2.8,19.8-19.7,34.5-39.7,34.5h-31.6c-14.5,0-27.6,5.9-37,15.4
	c-8,8-13.4,18.5-14.9,30.2c-2.6-0.5-5.3-0.8-8-0.8h-0.1c-28.9,0-52.4-23.4-52.4-52.4c0-14.5,5.8-27.5,15.3-37s22.6-15.4,37-15.4
	h31.6c20,0,36.9-14.7,39.7-34.5l12.1-86.1C691.7,389.8,712.8,402.3,732.8,416.3z"/>
<path class="st2" d="M449,237.5V12.9C449,5.8,454.8,0,462,0h6.7c7.1,0,12.9,5.8,12.9,12.9v224.6c0,7.1-5.8,12.9-12.9,12.9H462
	C454.8,250.4,449,244.6,449,237.5z"/>
<path class="st3" d="M530.9,252.1H399.7c-17.3,0-31.3-14-31.3-31.3v-16.2c0-17.3,14-31.3,31.3-31.3h131.1c17.3,0,31.3,14,31.3,31.3
	v16.2C562.2,238.1,548.2,252.1,530.9,252.1z"/>
<path class="st2" d="M617.8,499.5h-305c-20,0-36.9-14.7-39.7-34.5l-29-205.8c-3.4-24.1,15.3-45.7,39.7-45.7h362.9
	c24.4,0,43.1,21.6,39.7,45.7l-29,205.8C654.7,484.8,637.8,499.5,617.8,499.5z"/>
<path class="st2" d="M545,108.9H385.6c-7.1,0-12.9-5.8-12.9-12.9v-6.7c0-7.1,5.8-12.9,12.9-12.9H545c7.1,0,12.9,5.8,12.9,12.9V96
	C558,103.1,552.2,108.9,545,108.9z"/>
<circle class="st2" cx="465.3" cy="92.7" r="58.5"/>
<path class="st3" d="M586.2,604.3H344.4c14.5,0,27.6-5.9,37-15.3c9.5-9.5,15.3-22.6,15.3-37c0-28.9-23.4-52.4-52.4-52.4H586
	c-14.5,0-27.6,5.9-37,15.3c-9.5,9.5-15.3,22.6-15.3,37C533.8,580.8,557.2,604.3,586.2,604.3z"/>
<path class="st3" d="M599.1,1047.4H331.5c20.9,0,39.8-9.4,53.5-23.1c13.7-13.7,22.2-32.6,22.2-53.5h116.3
	C523.5,1012.7,557.3,1047.4,599.1,1047.4z"/>
<path class="st2" d="M545.3,970.9h-160c-20,0-36.9-14.7-39.7-34.4l-40.9-286.4c-3.5-24.2,15.3-45.8,39.7-45.8h241.9
	c24.4,0,43.2,21.6,39.7,45.8l-41,286.3C582.2,956.2,565.3,970.9,545.3,970.9z"/>
<path class="st2" d="M591.7,1132H338.9c-16.3,0-31.2-9.4-38.2-24.1l0,0c-13.4-28.1,7.1-60.5,38.2-60.5h252.8
	c31.1,0,51.6,32.4,38.2,60.5l0,0C622.9,1122.6,608,1132,591.7,1132z"/>
<path class="st2" d="M591.7,1184.4H338.9c-16.3,0-31.2-9.4-38.2-24.1l0,0c-13.4-28.1,7.1-60.5,38.2-60.5h252.8
	c31.1,0,51.6,32.4,38.2,60.5l0,0C622.9,1175,608,1184.4,591.7,1184.4z"/>
</svg>
