<?xml version="1.0" encoding="utf-8"?>
<!-- Generator: Adobe Illustrator 21.0.0, SVG Export Plug-In . SVG Version: 6.00 Build 0)  -->
<svg version="1.1" xmlns="http://www.w3.org/2000/svg" xmlns:xlink="http://www.w3.org/1999/xlink" x="0px" y="0px"
	 viewBox="0 0 930.6 1262.4" style="enable-background:new 0 0 930.6 1262.4;" xml:space="preserve">
<style type="text/css">
	.st0{fill:#5F2C82;}
	.st1{fill:#442256;}
	.st2{fill:#195C86;}
	.st3{fill:#9B1E5A;}
	.st4{fill:#2E75BC;}
	.st5{fill:#FFFFFF;}
	.st6{fill:#90C23E;}
	.st7{fill:#C8DA52;}
	.st8{fill:#34B2CC;}
	.st9{fill:#89CEEA;}
	.st10{fill:#55B66A;}
	.st11{fill:#144C72;}
	.st12{fill:none;stroke:#195C86;stroke-width:23;stroke-linecap:round;stroke-miterlimit:10;}
</style>
<g id="Layer_3">
	<g id="Layer_2">
		<path class="st0" d="M930.6,797.1c0,148.7-69.8,281.2-178.4,366.3c-9.9,7.8-20.2,15.2-30.8,22.2c-18.2,12-37.3,22.8-57.2,32.2
			c-16.6,7.8-33.7,14.7-51.2,20.6c-9.2,3.1-18.5,5.9-27.9,8.4c-3.3,0.9-6.6,1.7-10,2.5c-9.3,2.2-18.6,4.2-28.1,5.9
			c-6.7,1.2-13.5,2.2-20.3,3.1c-0.1,0-0.2,0-0.4,0.1c-12.9,1.7-26.1,2.9-39.3,3.5c-5.6,0.3-11.2,0.4-16.9,0.5c-1.6,0-3.3,0-4.9,0
			c-20.3,0-40.4-1.3-60-3.8c-1.7-0.2-3.4-0.4-5.1-0.7c-2.3-0.3-4.5-0.6-6.8-1c-0.9-0.1-1.8-0.3-2.7-0.4c-1.3-0.2-2.5-0.4-3.8-0.6
			c-0.2,0-0.4-0.1-0.6-0.1c-0.9-0.2-1.8-0.3-2.7-0.5c-0.9-0.2-1.8-0.3-2.6-0.5c-2.1-0.4-4.2-0.8-6.2-1.2c-1.2-0.2-2.4-0.5-3.7-0.7
			c-2-0.4-4-0.8-6-1.3c-1.6-0.4-3.3-0.7-4.9-1.1c-1-0.2-2-0.5-3-0.7c-3.8-0.9-7.6-1.9-11.4-2.9c-0.3-0.1-0.5-0.1-0.8-0.2
			c-1.4-0.4-2.8-0.8-4.3-1.2c-1.4-0.4-2.8-0.8-4.1-1.2c-0.5-0.1-1-0.3-1.4-0.4c-1.4-0.4-2.7-0.8-4.1-1.2c-1.3-0.4-2.7-0.8-4-1.2
			c-0.3-0.1-0.5-0.2-0.8-0.2c-20.7-6.4-40.7-14.3-60-23.4c-3.4-1.6-6.8-3.3-10.2-5C104.2,1136.2,0,978.9,0,797.1
			c0-135.2,57.7-257,149.8-342c23.5-21.6,49.1-40.9,76.7-57.4c6.9-4.1,13.9-8.1,21-11.9c6.7-3.6,13.6-7,20.5-10.2
			c8.4-4,17-7.7,25.7-11.1c7.5-3,15-5.7,22.6-8.3c0.5-0.2,1.1-0.3,1.6-0.5c22-7.3,44.7-13.1,68-17.1c22-3.8,44.5-6,67.5-6.6
			c4-0.1,8-0.2,12-0.2c0.3,0,0.6,0,1,0c9.2,0,18.3,0.3,27.3,0.8c4.3,0.3,8.6,0.6,12.9,0.9c9.3,0.8,18.6,1.9,27.8,3.3
			c13.3,2,26.4,4.5,39.3,7.6c2.7,0.6,5.5,1.3,8.2,2c10.5,2.7,20.9,5.8,31.1,9.2c2.6,0.9,5.2,1.8,7.8,2.7c4.2,1.5,8.3,3,12.4,4.6
			c3.6,1.4,7.1,2.8,10.7,4.3c4.5,1.9,8.9,3.8,13.3,5.8c0.6,0.3,1.1,0.5,1.7,0.8c7,3.2,13.9,6.6,20.7,10.1c1.1,0.5,2.1,1.1,3.2,1.7
			c4.1,2.2,8.1,4.4,12.1,6.7c7.5,4.3,15,8.8,22.2,13.5c2.7,1.8,5.5,3.5,8.2,5.4c12.6,8.5,24.8,17.6,36.5,27.3
			c21.8,18,41.8,37.9,60,59.5c11.9,14.2,23,29.1,33.2,44.7c25.1,38.3,44.7,80.6,57.7,125.7C924.3,709.2,930.6,752.4,930.6,797.1z"/>
	</g>
</g>
<g id="Layer_6">
	<g>
		<path class="st1" d="M912.5,668.3c-13.5,78.7-65,144.5-134.8,177.9v18.5c0,9.7-3.9,18.5-10.3,24.8c-6.3,6.3-15.1,10.3-24.8,10.3
			c-18.5,0-33.6-14.3-35-32.5c-11.3,1.6-22.8,2.5-34.5,2.5v180.4c45.8,6.9,81,46.4,81,94.2c0,6.5-0.6,12.9-1.9,19
			c-9.9,7.8-20.2,15.2-30.8,22.2c-18.2,12-37.3,22.8-57.2,32.2c-16.6,7.8-33.7,14.7-51.2,20.6c-9.2,3.1-18.5,5.9-27.9,8.4
			c-3.3,0.9-6.6,1.7-10,2.5c-9.3,2.2-18.6,4.2-28.1,5.9V834.6c-70.2-42.6-117-119.8-117-207.8c0-44,11.7-85.3,32.2-121
			c20.5-35.6,49.8-65.6,84.8-86.9c0.2-9.4,2.5-18.4,6.5-26.3c10.3-20.8,31.7-35.2,56.5-35.2c3.6,0,7.2,0.3,10.6,0.9
			c8.2,1.4,15.9,4.4,22.7,8.6c0.1,0.1,0.3,0.2,0.4,0.2c3.4,2.2,6.6,4.6,9.5,7.4c3,2.9,5.8,6,8.2,9.4c3.8-0.2,7.7-0.3,11.6-0.3
			c2.1,0,4.2,0,6.3,0.1c1.1,0.5,2.1,1.1,3.2,1.7c4.1,2.2,8.1,4.4,12.1,6.7c7.5,4.3,15,8.8,22.2,13.5c2.7,1.8,5.5,3.5,8.2,5.4
			c12.6,8.5,24.8,17.6,36.5,27.3c21.8,18,41.8,37.9,60,59.5c11.9,14.2,23,29.1,33.2,44.7C880,580.9,899.6,623.2,912.5,668.3z"/>
		<path class="st1" d="M742.6,946.3L742.6,946.3c-19.4,0-35.1,15.7-35.1,35.1v0c0,19.4,15.7,35.1,35.1,35.1h0
			c19.4,0,35.1-15.7,35.1-35.1v0C777.7,962,762,946.3,742.6,946.3z"/>
	</g>
</g>
<g id="Layer_1">
	<rect x="-619.2" y="819.6" class="st2" width="311.6" height="306.3"/>
	<path class="st3" d="M-265.7,1141.2v76.6c-42.7,20.2-88.9,34.1-137.5,40.5c-0.1,0-0.2,0-0.4,0.1c-20,2.4-40.4,3.7-61.1,3.7
		c-20.3,0-40.3-1.2-60-3.5c-49.2-6.3-95.9-20.3-139-40.7v-76.6c0-24.3,19.8-44.1,44.1-44.1h309.8
		C-285.5,1097.1-265.7,1116.8-265.7,1141.2z"/>
	<circle class="st4" cx="-761.9" cy="638.8" r="72"/>
	<circle class="st2" cx="-761.9" cy="638.8" r="37.9"/>
	<circle class="st4" cx="-167.5" cy="638.8" r="72"/>
	<circle class="st2" cx="-167.5" cy="638.8" r="37.9"/>
	<path class="st4" d="M-464.7,1032.9L-464.7,1032.9c-163.8,0-296.4-132.8-296.4-296.4v-440C-761.1,132.8-628.5,0-464.7,0l0,0
		c163.8,0,296.4,132.8,296.4,296.4v439.9C-168.3,900.2-300.9,1032.9-464.7,1032.9z"/>
	<circle class="st5" cx="-464.7" cy="297.2" r="223.7"/>
	<circle class="st2" cx="-598.2" cy="608.8" r="50.1"/>
	<circle class="st2" cx="-331.2" cy="608.8" r="50.1"/>
	<path class="st6" d="M-586.6,335.5L-586.6,335.5c-21.3-21.3-21.3-55.8,0-77.1l118-118c21.3-21.3,55.8-21.3,77.1,0l0,0
		c21.3,21.3,21.3,55.8,0,77.1l-118,118C-530.8,356.8-565.3,356.8-586.6,335.5z"/>
	<path class="st6" d="M-537.7,454.1L-537.7,454.1c-21.3-21.3-21.3-55.8,0-77.1l118-118c21.3-21.3,55.8-21.3,77.1,0l0,0
		c21.3,21.3,21.3,55.8,0,77.1l-118,118C-481.9,475.4-516.4,475.4-537.7,454.1z"/>
	<path class="st7" d="M-602.8,297.5L-602.8,297.5c0-30.1,24.4-54.5,54.5-54.5h166.9c30.1,0,54.5,24.4,54.5,54.5l0,0
		c0,30.1-24.4,54.5-54.5,54.5h-166.8C-578.4,352-602.8,327.6-602.8,297.5z"/>
	<path class="st1" d="M-108.3,497.9v99.9c-13-18.8-34.7-31-59.2-31c-0.3,0-0.5,0-0.8,0V438.4C-146.5,456.4-126.5,476.3-108.3,497.9z
		"/>
	<path class="st1" d="M-464.7,1262.1c20.7,0,41.1-1.3,61.1-3.7c-20,2.6-40.4,4-61.1,4c-20.3,0-40.4-1.3-60-3.8
		C-505,1260.9-485,1262.1-464.7,1262.1z"/>
	<path class="st1" d="M-35.5,698.8c0,39.8-32.2,72-72,72c-0.3,0-0.5,0-0.8,0v25.5c0,106.1-55.6,199.2-139.3,251.6v109.4
		c17.9,0.8,33,12.3,39,28.3c-18.2,12-37.3,22.8-57.2,32.2v-76.6c0-23.7-18.6-42.9-41.9-43.9V987.9
		c83.7-52.4,139.3-145.5,139.3-251.6v-25.5c0.3,0,0.5,0,0.8,0c39.8,0,72-32.2,72-72c0-3.8-0.3-7.5-0.9-11.1
		C-61.9,633-35.5,662.8-35.5,698.8z"/>
</g>
<g id="Layer_4">
	<circle class="st8" cx="214.4" cy="548.1" r="107.5"/>
	<circle class="st9" cx="280.7" cy="323.4" r="185.7"/>
	<path class="st9" d="M387,470.1v785.8c-0.2,0-0.4-0.1-0.6-0.1c-0.9-0.2-1.8-0.3-2.7-0.5c-0.9-0.2-1.8-0.3-2.6-0.5
		c-2.1-0.4-4.2-0.8-6.2-1.2c-1.2-0.2-2.4-0.5-3.7-0.7c-2-0.4-4-0.8-6-1.3c-1.6-0.4-3.3-0.7-4.9-1.1c-1-0.2-2-0.5-3-0.7
		c-3.8-0.9-7.6-1.9-11.4-2.9c-0.3-0.1-0.5-0.1-0.8-0.2c-1.4-0.4-2.8-0.8-4.3-1.2c-1.4-0.4-2.8-0.8-4.1-1.2c-0.5-0.1-1-0.3-1.4-0.4
		c-1.4-0.4-2.7-0.8-4.1-1.2c-1.3-0.4-2.7-0.8-4-1.2c-0.3-0.1-0.5-0.2-0.8-0.2c-20.7-6.4-40.7-14.3-60-23.4c-3.4-1.6-6.8-3.3-10.2-5
		V470.1H387z"/>
	<path class="st9" d="M198.3,789.5L198.3,789.5c-21.1,0-38.2-17.1-38.2-38.2v-165c0-21.1,17.1-38.2,38.2-38.2h0
		c21.1,0,38.2,17.1,38.2,38.2v165C236.6,772.4,219.5,789.5,198.3,789.5z"/>
	<path class="st9" d="M198.3,903L198.3,903c-21.1,0-38.2-17.1-38.2-38.2v0c0-21.1,17.1-38.2,38.2-38.2h0c21.1,0,38.2,17.1,38.2,38.2
		v0C236.6,885.9,219.5,903,198.3,903z"/>
	<circle class="st10" cx="613.1" cy="566.8" r="243"/>
	<circle class="st9" cx="598.9" cy="1084.4" r="95.2"/>
</g>
<g id="Layer_2_1_">
	<circle class="st4" cx="267.4" cy="368.4" r="50.4"/>
	<circle class="st2" cx="267.4" cy="368.4" r="26.5"/>
	<circle class="st4" cx="683.2" cy="368.4" r="50.4"/>
	<circle class="st2" cx="683.2" cy="368.4" r="26.5"/>
	<path class="st2" d="M574.3,494.8v754.5c-15.8,3.8-32,6.8-48.4,9c-0.1,0-0.2,0-0.4,0.1c-16.2,2.1-32.6,3.4-49.3,3.8
		c-3.9,0.1-7.9,0.2-11.8,0.2c-1.7,0-3.4,0-5.1,0c-18.6-0.2-37-1.5-54.9-3.8c-1.7-0.2-3.4-0.4-5.1-0.7c-2.3-0.3-4.5-0.6-6.8-1
		c-0.9-0.1-1.8-0.3-2.7-0.4c-1.5-0.2-2.9-0.5-4.4-0.7c-0.9-0.2-1.8-0.3-2.7-0.5c-0.9-0.2-1.8-0.3-2.6-0.5c-1.4-0.3-2.7-0.5-4.1-0.8
		c-0.7-0.1-1.4-0.3-2.1-0.4c-1.2-0.2-2.4-0.5-3.7-0.7c-2-0.4-4-0.8-6-1.3c-1.6-0.4-3.3-0.7-4.9-1.1c-1-0.2-2-0.5-3-0.7v-755H574.3z"
		/>
	<path class="st4" d="M465.3,644L465.3,644C350.7,644,258,551.1,258,436.7V233.9c0-114.5,92.7-207.4,207.3-207.4l0,0
		c114.6,0,207.3,92.9,207.3,207.3v202.8C672.6,551.2,579.9,644,465.3,644z"/>
	<circle class="st2" cx="371.9" cy="347.4" r="35"/>
	<circle class="st2" cx="538.7" cy="347.4" r="35"/>
	<path class="st11" d="M574.3,612.6v60c-31.8,19.9-69.5,31.5-109.9,31.5c-39.6,0-76.6-11.1-108.1-30.4v-60
		c31.5,19.3,68.5,30.4,108.1,30.4C504.8,644,542.4,632.5,574.3,612.6z"/>
	<path class="st12" d="M539.2,509.1c-19.7,17.4-45.6,27.9-73.9,27.9c-28.3,0-54.2-10.5-73.9-27.9"/>
</g>
<g id="Layer_5">
	<circle class="st7" cx="613.1" cy="289.7" r="165.2"/>
	<path class="st7" d="M613.1,360.5v877.9c-9.2,3.1-18.5,5.9-27.9,8.4v2.5c-15.8,3.8-32,6.8-48.4,9c-0.1,0-0.2,0-0.4,0.1
		c-16.2,2.1-32.7,3.4-49.3,3.8V360.5c0-0.5,0-1,0-1.5c0.2-9.4,2.5-18.4,6.5-26.3c10.3-20.8,31.7-35.2,56.5-35.2
		c12.2,0,23.6,3.5,33.3,9.5c7.1,4.4,13.3,10.2,18.1,17.1c6.4,9.1,10.5,19.9,11.4,31.6C613,357.3,613.1,358.9,613.1,360.5z"/>
	<path class="st6" d="M550.1,470.1L550.1,470.1c-19.4,0-35.1,15.7-35.1,35.1v377c0,19.4,15.7,35.1,35.1,35.1h0
		c19.4,0,35.1-15.7,35.1-35.1v-377C585.2,485.8,569.5,470.1,550.1,470.1z"/>
	<path class="st7" d="M682.6,566.9L682.6,566.9c-19.4,0-35.1,15.7-35.1,35.1v202.7c0,19.4,15.7,35.1,35.1,35.1h0
		c19.4,0,35.1-15.7,35.1-35.1V602C717.7,582.6,702,566.9,682.6,566.9z"/>
	<path class="st7" d="M682.6,886.3L682.6,886.3c-19.4,0-35.1,15.7-35.1,35.1v0c0,19.4,15.7,35.1,35.1,35.1h0
		c19.4,0,35.1-15.7,35.1-35.1v0C717.7,902,702,886.3,682.6,886.3z"/>
	<circle class="st6" cx="631.4" cy="328.8" r="52.7"/>
	<circle class="st6" cx="550.1" cy="997.6" r="35.1"/>
	<circle class="st8" cx="377.3" cy="740.6" r="52.1"/>
</g>
</svg>
