<?xml version="1.0" encoding="utf-8"?>
<!-- Generator: Adobe Illustrator 21.0.0, SVG Export Plug-In . SVG Version: 6.00 Build 0)  -->
<svg version="1.1" xmlns="http://www.w3.org/2000/svg" xmlns:xlink="http://www.w3.org/1999/xlink" x="0px" y="0px"
	 viewBox="0 0 930.6 1262.4" style="enable-background:new 0 0 930.6 1262.4;" xml:space="preserve">
<style type="text/css">
	.st0{fill:#5F2C82;}
	.st1{fill:#442256;}
	.st2{fill:#2E75BC;}
	.st3{fill:#195C86;}
	.st4{fill:#9B1E5A;}
	.st5{fill:#FFFFFF;}
	.st6{fill:#90C23E;}
	.st7{fill:#C8DA52;}
	.st8{fill:#144C72;}
</style>
<g id="Layer_1">
	<g id="Layer_2">
		<path class="st0" d="M930.6,797.1c0,162.4-83.1,305.2-209.1,388.5c-18.2,12-37.3,22.8-57.2,32.2c-42.7,20.2-88.9,34.1-137.5,40.5
			c-0.1,0-0.2,0-0.4,0.1c-20,2.6-40.4,4-61.1,4c-20.3,0-40.4-1.3-60-3.8c-1.7-0.2-3.4-0.4-5.1-0.7c-2.3-0.3-4.5-0.6-6.8-1
			c-0.9-0.1-1.8-0.3-2.7-0.4c-1.5-0.2-2.9-0.5-4.4-0.7c-0.9-0.2-1.8-0.3-2.7-0.5c-0.9-0.2-1.8-0.3-2.6-0.5c-2.1-0.4-4.2-0.8-6.2-1.2
			c-1.2-0.2-2.4-0.5-3.7-0.7c-2-0.4-4-0.8-6-1.3c-1.6-0.4-3.3-0.7-4.9-1.1c-4.8-1.1-9.6-2.3-14.4-3.6c-0.3-0.1-0.5-0.1-0.8-0.2
			c-1.4-0.4-2.8-0.8-4.3-1.2c-1.4-0.4-2.8-0.8-4.1-1.2c-0.5-0.1-1-0.3-1.4-0.4c-1.4-0.4-2.7-0.8-4.1-1.2c-1.3-0.4-2.7-0.8-4-1.2
			c-0.3-0.1-0.5-0.2-0.8-0.2c-20.7-6.4-40.7-14.3-60-23.4C108.9,1143.2,0,982.9,0,797.1c0-257,208.3-465.3,465.3-465.3
			c112.6,0,215.9,40,296.4,106.6c21.8,18,41.8,37.9,60,59.5C889.7,578.8,930.6,683.2,930.6,797.1z"/>
	</g>
	<rect x="598.7" y="1085" class="st1" width="70" height="117.3"/>
	<circle class="st2" cx="168.1" cy="638.8" r="72"/>
	<circle class="st3" cx="168.1" cy="638.8" r="37.9"/>
	<circle class="st2" cx="762.5" cy="638.8" r="72"/>
	<circle class="st3" cx="762.5" cy="638.8" r="37.9"/>
	<rect x="310.8" y="819.6" class="st3" width="311.6" height="320.4"/>
	<path class="st2" d="M465.3,1032.9L465.3,1032.9c-163.8,0-296.4-132.8-296.4-296.4v-440C168.9,132.8,301.5,0,465.3,0l0,0
		c163.8,0,296.4,132.8,296.4,296.4v439.9C761.7,900.2,629.1,1032.9,465.3,1032.9z"/>
	<path class="st3" d="M622.4,987.9v60c-45.5,28.5-99.4,45-157.1,45c-56.6,0-109.5-15.9-154.5-43.4v-60c45,27.5,97.9,43.4,154.5,43.4
		C523,1032.9,576.9,1016.4,622.4,987.9z"/>
	<path class="st4" d="M664.3,1171.2v46.6c-42.7,20.2-88.9,34.1-137.5,40.5c-0.1,0-0.2,0-0.4,0.1c-20,2.6-40.4,4-61.1,4
		c-20.3,0-40.4-1.3-60-3.8c-1.7-0.2-3.4-0.4-5.1-0.7c-2.3-0.3-4.5-0.6-6.8-1c-0.9-0.1-1.8-0.3-2.7-0.4c-1.5-0.2-2.9-0.5-4.4-0.7
		c-0.9-0.2-1.8-0.3-2.7-0.5c-0.9-0.2-1.8-0.3-2.6-0.5c-2.1-0.4-4.2-0.8-6.2-1.2c-1.2-0.2-2.4-0.5-3.7-0.7c-2-0.4-4-0.8-6-1.3
		c-1.6-0.4-3.3-0.7-4.9-1.1c-4.8-1.1-9.6-2.3-14.4-3.6c-0.3-0.1-0.5-0.1-0.8-0.2c-1.4-0.4-2.8-0.8-4.3-1.2c-1.4-0.4-2.8-0.8-4.1-1.2
		c-0.5-0.1-1-0.3-1.4-0.4c-1.4-0.4-2.7-0.8-4.1-1.2c-1.3-0.4-2.7-0.8-4-1.2c-0.3-0.1-0.5-0.2-0.8-0.2c-20.7-6.4-40.7-14.3-60-23.4
		v-46.6c0-24.3,19.8-44.1,44.1-44.1h309.8C644.5,1127.1,664.3,1146.8,664.3,1171.2z"/>
	<circle class="st5" cx="465.3" cy="297.2" r="223.7"/>
	<circle class="st3" cx="331.8" cy="608.8" r="50.1"/>
	<circle class="st3" cx="598.8" cy="608.8" r="50.1"/>
	<path class="st6" d="M343.4,335.5L343.4,335.5c-21.3-21.3-21.3-55.8,0-77.1l118-118c21.3-21.3,55.8-21.3,77.1,0l0,0
		c21.3,21.3,21.3,55.8,0,77.1l-118,118C399.2,356.8,364.7,356.8,343.4,335.5z"/>
	<path class="st6" d="M392.3,454.1L392.3,454.1c-21.3-21.3-21.3-55.8,0-77.1l118-118c21.3-21.3,55.8-21.3,77.1,0l0,0
		c21.3,21.3,21.3,55.8,0,77.1l-118,118C448.1,475.4,413.6,475.4,392.3,454.1z"/>
	<path class="st7" d="M327.2,297.5L327.2,297.5c0-30.1,24.4-54.5,54.5-54.5h166.9c30.1,0,54.5,24.4,54.5,54.5l0,0
		c0,30.1-24.4,54.5-54.5,54.5H381.8C351.6,352,327.2,327.6,327.2,297.5z"/>
	<path class="st1" d="M821.7,497.9v99.9c-13-18.8-34.7-31-59.2-31c-0.3,0-0.5,0-0.8,0V438.4C783.5,456.4,803.5,476.3,821.7,497.9z"
		/>
	<path class="st1" d="M465.3,1262.1c20.7,0,41.1-1.3,61.1-3.7c-20,2.6-40.4,4-61.1,4c-20.3,0-40.4-1.3-60-3.8
		C425,1260.9,445,1262.1,465.3,1262.1z"/>
	<path class="st1" d="M894.5,698.8c0,39.8-32.2,72-72,72c-0.3,0-0.5,0-0.8,0v25.5c0,106.1-55.6,199.2-139.3,251.6v109.4
		c17.9,0.8,33,12.3,39,28.3c-18.2,12-37.3,22.8-57.2,32.2v-76.6c0-23.7-18.6-42.9-41.9-43.9V987.9
		c83.7-52.4,139.3-145.5,139.3-251.6v-25.5c0.3,0,0.5,0,0.8,0c39.8,0,72-32.2,72-72c0-3.8-0.3-7.5-0.9-11.1
		C868.1,633,894.5,662.8,894.5,698.8z"/>
</g>
<g id="Layer_2_1_">
	<path class="st8" d="M622.4,987.9v60c-45.5,28.5-99.4,45-157.1,45c-56.6,0-109.5-15.9-154.5-43.4v-60c45,27.5,97.9,43.4,154.5,43.4
		C523,1032.9,576.9,1016.4,622.4,987.9z"/>
</g>
</svg>
