<?xml version="1.0" encoding="utf-8"?>
<!-- Generator: Adobe Illustrator 21.0.0, SVG Export Plug-In . SVG Version: 6.00 Build 0)  -->
<svg version="1.1" id="Layer_2" xmlns="http://www.w3.org/2000/svg" xmlns:xlink="http://www.w3.org/1999/xlink" x="0px" y="0px"
	 viewBox="0 0 1920 1080" style="enable-background:new 0 0 1920 1080;" xml:space="preserve">
<style type="text/css">
	.st0{fill:#FFFFFF;}
</style>
<g>
	<path class="st0" d="M44.7,222.3h1464.5c0,0,54.1-8.2,85.8,42.3s322.1,563,322.1,563s14.1,30.6-20,30.6s-592.4,0-592.4,0l67-183.4
		h168.1c0,0,24.7,1.2,1.2-32.9c-23.5-34.1-155.2-256.2-155.2-256.2s-4.7-17.6-28.2-17.6s-804,0-804,0s-43.5-1.2-59.9,44.7
		c-16.5,45.8-168.1,445.5-168.1,445.5H60l164.6-429c0,0,18.8-57.6-32.9-57.6s-177.5,0-177.5,0s-21.2,2.2-11.8-26
		C11.8,317.5,44.7,222.3,44.7,222.3z"/>
	<path class="st0" d="M599.5,395.1h296.2c0,0-13.3,34.5,9.4,43.9s164.6,61.9,212.4,86.6c47.8,24.7,66.6,51.3,43.9,121.8
		s-64.3,170-76.4,179.4s-23.1,31.3-78,31.3s-642.5,0-642.5,0l65-176.3h463.9c0,0,18.8-0.8,20.4-13.3c1.6-12.5-21.2-22.7-55.6-37.6
		C823.7,616,609.8,519.6,609.8,519.6s-38.4-11.8-24.3-68.2C599.5,395.1,599.5,395.1,599.5,395.1z"/>
	<path class="st0" d="M1164.5,395.1h159.1c0,0,15.7-1.6,25.1,7.8s51.7,75.2,51.7,75.2s6.3,3.9,0,25.1c-6.3,21.2-131.6,355-131.6,355
		H1090c0,0,30.6-2.4,54.1-66.6s72.1-174.7,65.8-207.7s-27.4-50.9-46.2-65c-18.8-14.1-38.4-14.9-34.5-32.1S1164.5,395.1,1164.5,395.1
		z"/>
</g>
</svg>
