<?xml version="1.0" encoding="utf-8"?>
<!-- Generator: Adobe Illustrator 22.1.0, SVG Export Plug-In . SVG Version: 6.00 Build 0)  -->
<svg version="1.1" id="Layer_1" xmlns="http://www.w3.org/2000/svg" xmlns:xlink="http://www.w3.org/1999/xlink" x="0px" y="0px"
	 viewBox="0 0 1000 332" style="enable-background:new 0 0 1000 332;" xml:space="preserve">
<style type="text/css">
	.st0{fill:#FFFFFF;}
</style>
<g>
	<path class="st0" d="M1.1,69.9c-1.9,7.3,4.2,7.3,4.2,7.3c-6.1,0,99.6,0,99.6,0c8.2,0,20.4,11.5,14.4,28.3L31.9,331.6h139.5
		l84.9-226.8c10.9-27.6,10.7-28.7,53.4-28.8h392c13.4,0,14.7-0.3,20.5,9.1l84.4,140.2c2.9,7.4,1.1,11.5-8.1,11.5h-83.1l-35.2,94.9
		l311.1-0.1c6.8-0.1,10.4-6.5,7.9-13.9L828.1,18.9c-8.3-12.2-21-19.2-39.5-18.5l-12.5,0l-740.3,0H25L1.1,69.9z"/>
	<path class="st0" d="M568.2,331.6c0,0,11.6,0,24.7-27.3c9-18.9,32.1-83.2,37-102.3c8.9-35.2-38.3-56.5-38.3-56.5
		c-3.9-2-5.1-3.8-4.4-6l19.6-50.8h85.4c6.3,0.7,7.7,1.4,13.1,7.3l25.5,39.2c1.8,2.9,1.4,4.5,0,8.1L661,331.6H568.2z"/>
	<path class="st0" d="M510.8,331.5c0,0,17.3-0.3,20.1-0.5c14.9-1.2,23.7-4.1,35.1-17.9c12.4-15,42.9-94.7,44.2-113.2
		c1.4-19.4-9.4-30.5-24.3-39c-13.2-7.5-110.6-46.6-113.9-48.1c-3.3-1.5-5.4-4.6-6.3-9.5S467,90,467,90l-153.6,0c0,0-8,26.9-9,43
		c-0.8,12.5,6.6,17.4,11.2,20.7c6,4.2,149.5,65.8,154.4,68.8c6.6,4,12.3,17.3-6.9,17.3l-238,0l-34.4,91.8H510.8z"/>
</g>
</svg>
